<svg width="256" height="256" viewBox="0 0 256 256" fill="none" xmlns="http://www.w3.org/2000/svg">
  <defs>
    <linearGradient id="shell" x1="52" y1="36" x2="204" y2="220" gradientUnits="userSpaceOnUse">
      <stop stop-color="#7DD3FC"/>
      <stop offset="0.5" stop-color="#38BDF8"/>
      <stop offset="1" stop-color="#22D3EE"/>
    </linearGradient>
    <linearGradient id="glow" x1="128" y1="28" x2="128" y2="228" gradientUnits="userSpaceOnUse">
      <stop stop-color="#C4F1FF" stop-opacity="0.95"/>
      <stop offset="1" stop-color="#67E8F9" stop-opacity="0.2"/>
    </linearGradient>
  </defs>
  <rect width="256" height="256" rx="56" fill="#08111C"/>
  <path d="M77 74C60 63 49 47 44 29M83 92C59 91 41 84 28 72M179 74C196 63 207 47 212 29M173 92C197 91 215 84 228 72" stroke="#67E8F9" stroke-width="10" stroke-linecap="round"/>
  <path d="M86 52C95 63 100 74 102 88M170 52C161 63 156 74 154 88" stroke="#A5F3FC" stroke-width="10" stroke-linecap="round"/>
  <path d="M93 103C93 84.2223 108.222 69 127 69H129C147.778 69 163 84.2223 163 103V108C163 116.837 170.163 124 179 124C190.598 124 200 133.402 200 145V151C200 162.598 190.598 172 179 172H163V177C163 195.778 147.778 211 129 211H127C108.222 211 93 195.778 93 177V172H77C65.402 172 56 162.598 56 151V145C56 133.402 65.402 124 77 124C85.8366 124 93 116.837 93 108V103Z" fill="url(#shell)"/>
  <path d="M115 118C121 114 135 114 141 118M113 147C121 155 135 155 143 147" stroke="#062136" stroke-width="8" stroke-linecap="round"/>
  <circle cx="111" cy="101" r="7" fill="#03131F"/>
  <circle cx="145" cy="101" r="7" fill="#03131F"/>
  <path d="M104 173L88 196M120 178L110 212M152 178L162 212M168 173L184 196" stroke="#67E8F9" stroke-width="9" stroke-linecap="round"/>
  <path d="M75 139H52M181 139H204" stroke="#A5F3FC" stroke-width="10" stroke-linecap="round"/>
  <path d="M108 38C118 31 138 31 148 38" stroke="url(#glow)" stroke-width="10" stroke-linecap="round"/>
</svg>
